<?xml version="1.0" standalone="no"?>
<!DOCTYPE svg PUBLIC "-//W3C//DTD SVG 20010904//EN"
 "http://www.w3.org/TR/2001/REC-SVG-20010904/DTD/svg10.dtd">
<svg version="1.0" xmlns="http://www.w3.org/2000/svg"
 width="405.000000pt" height="316.000000pt" viewBox="0 0 405.000000 316.000000"
 preserveAspectRatio="xMidYMid meet">

<g transform="translate(0.000000,316.000000) scale(0.100000,-0.100000)"
fill="#000000" stroke="none">
<path d="M2149 2983 c-93 -48 -133 -135 -107 -235 l15 -58 -110 0 c-133 0
-182 -18 -225 -83 -25 -38 -27 -48 -30 -179 -4 -125 -6 -139 -20 -132 -10 4
-45 9 -78 12 -74 5 -118 -12 -168 -68 -139 -154 18 -398 217 -337 l47 15 0
-106 c0 -122 16 -170 69 -215 46 -38 90 -47 244 -47 l137 0 0 -27 c0 -66 66
-244 156 -425 30 -59 54 -121 54 -137 0 -16 -13 -122 -30 -236 -35 -241 -35
-239 -14 -259 13 -14 56 -16 314 -16 258 0 301 2 314 16 14 13 16 54 16 293
l0 278 76 309 c42 170 78 338 81 374 9 110 -13 168 -172 462 -132 242 -145
271 -145 317 0 87 -31 138 -105 172 -31 14 -64 19 -149 19 -99 0 -108 1 -101
18 12 28 18 108 11 145 -8 45 -70 115 -120 138 -59 27 -113 24 -177 -8z m174
-113 c31 -35 36 -88 12 -130 -22 -38 -18 -85 9 -117 24 -28 26 -28 166 -33
134 -5 143 -6 161 -29 18 -22 19 -44 19 -384 l0 -361 -82 -81 -83 -80 -5 150
c-3 83 -10 159 -14 170 -73 171 -306 162 -365 -14 -6 -19 -11 -96 -11 -173 l0
-140 -145 4 c-193 4 -188 -1 -195 184 -5 134 -5 136 -33 160 -33 28 -78 31
-131 9 -44 -19 -81 -11 -118 23 -35 33 -45 80 -24 120 32 61 87 77 161 46 46
-19 84 -11 118 24 25 26 26 32 29 175 l3 149 28 24 c26 22 36 24 148 24 66 0
129 5 140 10 23 13 49 61 49 91 0 12 -7 42 -17 68 -15 43 -15 49 1 81 35 76
124 91 179 30z m570 -822 c90 -164 117 -234 117 -302 0 -22 -36 -188 -80 -368
l-80 -327 0 -250 0 -251 -225 0 c-187 0 -225 2 -225 14 0 8 11 91 25 186 36
245 36 243 -35 384 -134 267 -160 369 -160 626 0 161 10 204 50 225 36 19 54
19 90 0 41 -21 50 -64 50 -247 l0 -156 31 -26 c35 -29 58 -32 97 -12 39 20
219 207 232 240 6 16 10 114 10 234 0 119 4 202 9 197 5 -6 47 -81 94 -167z"/>
<path d="M1175 1864 c-16 -9 -64 -50 -106 -91 l-76 -75 -12 30 c-15 35 -65 88
-100 107 -102 51 -235 4 -282 -99 -34 -75 -19 -177 34 -234 12 -13 39 -33 61
-44 l38 -19 -76 -79 c-107 -110 -127 -169 -87 -255 26 -55 592 -619 643 -640
50 -20 94 -19 143 5 48 23 195 170 195 194 0 18 -34 56 -51 56 -6 0 -48 -36
-93 -79 -82 -79 -117 -98 -153 -87 -10 3 -150 138 -311 299 -211 212 -292 299
-292 316 0 36 17 61 103 148 69 71 81 87 81 116 0 47 -27 83 -80 108 -100 48
-100 176 1 209 51 17 103 -10 131 -70 28 -56 67 -90 105 -90 25 0 49 18 130
95 131 126 133 126 253 6 l88 -88 -46 -27 c-145 -85 -141 -292 8 -368 56 -29
137 -28 194 1 43 22 102 91 102 120 0 9 34 -18 80 -64 104 -103 105 -118 20
-208 -64 -69 -73 -97 -39 -121 28 -19 44 -12 107 48 67 64 92 111 92 174 0 63
-33 114 -133 210 -68 64 -81 72 -116 72 -48 0 -87 -29 -107 -81 -35 -85 -149
-101 -194 -26 -41 67 -20 127 60 167 76 38 98 87 66 148 -22 42 -189 200 -229
217 -46 19 -114 19 -152 -1z"/>
<path d="M1615 846 c-13 -19 -14 -29 -6 -45 25 -45 91 -33 91 17 0 54 -56 72
-85 28z"/>
</g>
</svg>
